<svg width="20" height="20" viewBox="0 0 20 20" fill="none" xmlns="http://www.w3.org/2000/svg">
<path fill-rule="evenodd" clip-rule="evenodd" d="M10.0001 1.04175C5.05258 1.04175 1.04175 5.05258 1.04175 10.0001C1.04175 14.9476 5.05258 18.9584 10.0001 18.9584C14.9476 18.9584 18.9584 14.9476 18.9584 10.0001C18.9584 5.05258 14.9476 1.04175 10.0001 1.04175ZM6.27508 9.97508C6.1566 9.86468 5.9999 9.80458 5.83798 9.80744C5.67606 9.81029 5.52157 9.87589 5.40706 9.9904C5.29255 10.1049 5.22696 10.2594 5.2241 10.4213C5.22125 10.5832 5.28135 10.7399 5.39175 10.8584L7.89175 13.3584C8.00894 13.4755 8.16779 13.5412 8.33341 13.5412C8.49904 13.5412 8.65789 13.4755 8.77508 13.3584L14.6084 7.52508C14.7188 7.4066 14.7789 7.2499 14.7761 7.08798C14.7732 6.92606 14.7076 6.77157 14.5931 6.65706C14.4786 6.54255 14.3241 6.47696 14.1622 6.4741C14.0003 6.47125 13.8436 6.53135 13.7251 6.64175L8.33341 12.0334L6.27508 9.97508Z" fill="#29AD2C"/>
</svg>
