<svg width="20" height="20" viewBox="0 0 20 20" fill="none" xmlns="http://www.w3.org/2000/svg">
<g clip-path="url(#clip0_256_157)">
<path d="M10.0001 13.3334L13.3334 10.0001M10.0001 13.3334L6.66675 9.86092M10.0001 13.3334V5.83342M9.64675 1.18675C9.7405 1.09312 9.86759 1.04053 10.0001 1.04053C10.1326 1.04053 10.2597 1.09312 10.3534 1.18675L18.8134 9.64675C18.9071 9.7405 18.9596 9.86759 18.9596 10.0001C18.9596 10.1326 18.9071 10.2597 18.8134 10.3534L10.3534 18.8134C10.2597 18.9071 10.1326 18.9596 10.0001 18.9596C9.86759 18.9596 9.7405 18.9071 9.64675 18.8134L1.18675 10.3534C1.09312 10.2597 1.04053 10.1326 1.04053 10.0001C1.04053 9.86759 1.09312 9.7405 1.18675 9.64675L9.64675 1.18675Z" stroke="#329D47" stroke-width="1.25" stroke-linecap="round" stroke-linejoin="round"/>
</g>
<defs>
<clipPath id="clip0_256_157">
<rect width="20" height="20" fill="white"/>
</clipPath>
</defs>
</svg>
